<?xml version="1.0" encoding="iso-8859-1"?>
<!-- Generator: Adobe Illustrator 16.0.0, SVG Export Plug-In . SVG Version: 6.00 Build 0)  -->
<!DOCTYPE svg PUBLIC "-//W3C//DTD SVG 1.1//EN" "http://www.w3.org/Graphics/SVG/1.1/DTD/svg11.dtd">
<svg version="1.1" id="Layer_1" xmlns="http://www.w3.org/2000/svg" xmlns:xlink="http://www.w3.org/1999/xlink" x="0px" y="0px"
	 width="267.956px" height="59.668px" viewBox="0 0 267.956 59.668" style="enable-background:new 0 0 267.956 59.668;"
	 xml:space="preserve">
<g>
	<path style="fill:#CCC6C6;stroke:#4C4545;stroke-linejoin:round;stroke-miterlimit:10;" d="M18.218,13.509H4.752l1.44-7.345h35.355
		l-1.44,7.345H26.57l-7.777,41.188h-8.424L18.218,13.509z"/>
	<path style="fill:#CCC6C6;stroke:#4C4545;stroke-linejoin:round;stroke-miterlimit:10;" d="M50.903,54.696L44.927,6.164h8.569
		l2.808,26.714c0.576,5.041,0.864,8.929,1.081,13.105h0.144c1.584-3.96,3.457-8.425,5.977-13.465L76.466,6.164h9.289L60.48,54.696
		H50.903z"/>
	<path style="fill:#CCC6C6;stroke:#4C4545;stroke-linejoin:round;stroke-miterlimit:10;" d="M95.109,54.696l2.7-14.29h-2.268
		l0.612-3.24h2.268l0.18-0.9c0.396-2.232,1.26-4.463,2.916-5.903c1.296-1.116,2.988-1.62,4.607-1.62
		c1.224,0,2.124,0.216,2.592,0.468l-0.792,3.312c-0.432-0.18-1.008-0.288-1.691-0.288c-1.98,0-3.096,1.835-3.492,4.103l-0.144,0.828
		h3.636l-0.612,3.24h-3.635l-2.7,14.29H95.109z"/>
	<path style="fill:#CCC6C6;stroke:#4C4545;stroke-linejoin:round;stroke-miterlimit:10;" d="M123.439,44.042
		c0,5.939-4.176,11.051-10.151,11.051c-4.427,0-7.163-3.06-7.163-7.235c0-5.939,4.14-11.086,10.115-11.086
		C120.956,36.771,123.439,40.154,123.439,44.042z M110.445,47.749c0,2.412,1.296,4.104,3.42,4.104c3.131,0,5.219-4.319,5.219-7.811
		c0-1.8-0.792-4.031-3.348-4.031C112.389,40.01,110.445,44.474,110.445,47.749z"/>
	<path style="fill:#CCC6C6;stroke:#4C4545;stroke-linejoin:round;stroke-miterlimit:10;" d="M125.242,54.696l2.052-10.799
		c0.468-2.483,0.684-5.147,0.9-6.731h3.636c-0.108,1.188-0.216,2.412-0.396,3.708h0.108c1.188-2.375,3.096-4.104,5.507-4.104
		c0.288,0,0.612,0.036,0.9,0.072l-0.828,4.103c-0.216-0.036-0.504-0.072-0.792-0.072c-2.988,0-4.896,3.023-5.58,6.767l-1.332,7.055
		H125.242z"/>
	<path style="fill:#CCC6C6;stroke:#4C4545;stroke-linejoin:round;stroke-miterlimit:10;" d="M154.851,54.696l3.9-20.624
		l-9.825-29.924h11.55l3.225,12.824c0.9,4.2,1.425,6.6,1.95,9.15h0.15c1.5-2.7,3-5.55,5.175-9.225l7.575-12.75h12.899
		l-21.824,29.699l-3.975,20.849H154.851z"/>
	<path style="fill:#CCC6C6;stroke:#4C4545;stroke-linejoin:round;stroke-miterlimit:10;" d="M219.274,32.272
		c0,13.425-9.15,23.25-21.899,23.25c-9.3,0-15.524-6.075-15.524-15.149c0-12.75,8.85-23.174,21.899-23.174
		C213.574,17.198,219.274,23.948,219.274,32.272z M193.025,40.147c0,4.275,2.1,7.125,5.85,7.125c5.925,0,9.225-8.625,9.225-14.924
		c0-3.375-1.425-6.975-5.775-6.975C196.1,25.373,192.95,34.447,193.025,40.147z"/>
	<path style="fill:#CCC6C6;stroke:#4C4545;stroke-linejoin:round;stroke-miterlimit:10;" d="M262.324,18.023l-4.726,24.749
		c-0.899,4.649-1.425,8.625-1.949,11.924h-9.525l0.676-6h-0.15c-3.75,4.8-8.25,6.825-12.675,6.825c-5.85,0-9.374-3.3-9.374-10.275
		c0-2.025,0.225-4.2,0.75-6.75l3.824-20.474h10.8L236.3,37.672c-0.3,1.65-0.525,3.45-0.525,4.8c0,2.4,0.9,4.275,3.675,4.275
		c3.676,0,7.425-4.425,8.85-11.774l3.226-16.949H262.324z"/>
</g>
</svg>
